<mxfile host="app.diagrams.net" modified="2022-11-30T02:32:39.921Z" agent="5.0 (Windows)" version="20.6.0" etag="OaJN_6eF_aEFVoto6MyT" type="github">
  <diagram id="mb-tZgp3zU6TYsqnozkC" name="第 1 页">
    <mxGraphModel dx="1422" dy="714" grid="1" gridSize="10" guides="1" tooltips="1" connect="1" arrows="1" fold="1" page="1" pageScale="1" pageWidth="827" pageHeight="1169" math="0" shadow="0">
      <root>
        <mxCell id="0" />
        <mxCell id="1" parent="0" />
        <mxCell id="66FuJ6tfi-zrDr_wdLSn-9" style="edgeStyle=orthogonalEdgeStyle;rounded=0;orthogonalLoop=1;jettySize=auto;html=1;entryX=0;entryY=0.5;entryDx=0;entryDy=0;strokeWidth=3;" edge="1" parent="1" source="66FuJ6tfi-zrDr_wdLSn-1" target="66FuJ6tfi-zrDr_wdLSn-8">
          <mxGeometry relative="1" as="geometry" />
        </mxCell>
        <mxCell id="66FuJ6tfi-zrDr_wdLSn-1" value="12*超声波雷达传感器" style="rounded=0;whiteSpace=wrap;html=1;strokeWidth=3;strokeColor=#3333FF;" vertex="1" parent="1">
          <mxGeometry x="230" y="120" width="120" height="60" as="geometry" />
        </mxCell>
        <mxCell id="66FuJ6tfi-zrDr_wdLSn-5" style="edgeStyle=orthogonalEdgeStyle;rounded=0;orthogonalLoop=1;jettySize=auto;html=1;strokeWidth=3;" edge="1" parent="1" source="66FuJ6tfi-zrDr_wdLSn-4" target="66FuJ6tfi-zrDr_wdLSn-1">
          <mxGeometry relative="1" as="geometry" />
        </mxCell>
        <mxCell id="66FuJ6tfi-zrDr_wdLSn-4" value="超声波雷达标定" style="rounded=1;whiteSpace=wrap;html=1;strokeColor=#00CC66;strokeWidth=3;" vertex="1" parent="1">
          <mxGeometry x="10" y="120" width="120" height="60" as="geometry" />
        </mxCell>
        <mxCell id="66FuJ6tfi-zrDr_wdLSn-6" value="标定参数" style="text;html=1;strokeColor=none;fillColor=none;align=center;verticalAlign=middle;whiteSpace=wrap;rounded=0;strokeWidth=3;" vertex="1" parent="1">
          <mxGeometry x="150" y="120" width="60" height="30" as="geometry" />
        </mxCell>
        <mxCell id="66FuJ6tfi-zrDr_wdLSn-11" value="" style="edgeStyle=orthogonalEdgeStyle;rounded=0;orthogonalLoop=1;jettySize=auto;html=1;strokeWidth=3;" edge="1" parent="1" source="66FuJ6tfi-zrDr_wdLSn-8" target="66FuJ6tfi-zrDr_wdLSn-10">
          <mxGeometry relative="1" as="geometry" />
        </mxCell>
        <mxCell id="66FuJ6tfi-zrDr_wdLSn-8" value="G35" style="rounded=0;whiteSpace=wrap;html=1;strokeWidth=3;strokeColor=#3333FF;" vertex="1" parent="1">
          <mxGeometry x="400" y="120" width="120" height="60" as="geometry" />
        </mxCell>
        <mxCell id="66FuJ6tfi-zrDr_wdLSn-10" value="黑芝麻/397" style="rounded=0;whiteSpace=wrap;html=1;strokeWidth=3;strokeColor=#3333FF;" vertex="1" parent="1">
          <mxGeometry x="560" y="120" width="120" height="60" as="geometry" />
        </mxCell>
        <mxCell id="66FuJ6tfi-zrDr_wdLSn-12" value="" style="rounded=1;whiteSpace=wrap;html=1;strokeColor=#00CC66;strokeWidth=3;" vertex="1" parent="1">
          <mxGeometry x="80" y="240" width="600" height="270" as="geometry" />
        </mxCell>
        <mxCell id="66FuJ6tfi-zrDr_wdLSn-14" value="超声波雷达滤波" style="rounded=1;whiteSpace=wrap;html=1;strokeColor=#006666;strokeWidth=3;" vertex="1" parent="1">
          <mxGeometry x="50" y="550" width="120" height="60" as="geometry" />
        </mxCell>
      </root>
    </mxGraphModel>
  </diagram>
</mxfile>
